<?xml version="1.0" encoding="iso-8859-1"?>
<!-- Generator: Adobe Illustrator 19.0.0, SVG Export Plug-In . SVG Version: 6.00 Build 0)  -->
<svg version="1.1" id="Capa_1" xmlns="http://www.w3.org/2000/svg" xmlns:xlink="http://www.w3.org/1999/xlink" x="0px" y="0px"
	 viewBox="0 0 512 512" style="enable-background:new 0 0 512 512;" xml:space="preserve">
<circle style="fill:#F9EB97;" cx="256" cy="256" r="256"/>
<path style="fill:#F1CB30;" d="M509.995,288.153L338.746,116.905l-9.865,44.958l-46.513,31.315L338.09,248.3l-29.122,23.847
	l-36.49-37l-59.556,72.434l-36.49-37l-59.557,124.645l115.696,115.696C240.289,511.623,248.1,512,256,512
	C386.494,512,494.179,414.36,509.995,288.153z"/>
<polygon style="fill:#DA1716;" points="338.746,395.226 368.525,395.226 368.525,294.202 327.869,283.324 "/>
<polygon style="fill:#FF4847;" points="308.968,294.202 308.968,395.226 338.746,395.226 338.746,283.324 "/>
<g>
	<polygon style="fill:#DA1716;" points="242.7,395.226 272.478,395.226 272.478,315.187 231.822,304.309 	"/>
	<polygon style="fill:#DA1716;" points="146.653,395.226 176.432,395.226 176.432,332.904 135.775,322.026 	"/>
</g>
<polygon style="fill:#68B7EA;" points="338.746,116.905 327.869,189.909 338.746,294.202 368.525,294.202 368.525,193.178 
	395.125,193.178 "/>
<g>
	<polygon style="fill:#FF4847;" points="116.875,332.904 116.875,395.226 146.653,395.226 146.653,322.026 	"/>
	<polygon style="fill:#FF4847;" points="212.922,315.187 212.922,395.226 242.7,395.226 242.7,304.309 	"/>
</g>
<polygon style="fill:#ACECFD;" points="338.746,116.905 282.368,193.178 308.968,193.178 308.968,294.202 338.746,294.202 "/>
<polygon style="fill:#68B7EA;" points="242.7,315.187 272.478,315.187 272.478,235.147 242.7,235.147 231.822,270.581 "/>
<rect x="212.92" y="235.15" style="fill:#ACECFD;" width="29.778" height="80.04"/>
<polygon style="fill:#68B7EA;" points="146.653,332.904 176.432,332.904 176.432,270.581 146.653,270.581 135.775,298.6 "/>
<rect x="116.87" y="270.58" style="fill:#ACECFD;" width="29.778" height="62.32"/>
<g>
</g>
<g>
</g>
<g>
</g>
<g>
</g>
<g>
</g>
<g>
</g>
<g>
</g>
<g>
</g>
<g>
</g>
<g>
</g>
<g>
</g>
<g>
</g>
<g>
</g>
<g>
</g>
<g>
</g>
</svg>
