<svg width="89" height="53" viewBox="0 0 89 53" fill="none" xmlns="http://www.w3.org/2000/svg">
<path d="M22.7148 52.7383C18.1914 52.7383 14.2539 51.625 10.9023 49.3984C7.55078 47.1719 4.94922 44.1133 3.09766 40.2227C1.26953 36.3086 0.355469 31.832 0.355469 26.793V26.0195C0.355469 21.0039 1.26953 16.5508 3.09766 12.6602C4.94922 8.74609 7.53906 5.67578 10.8672 3.44922C14.2188 1.19922 18.1562 0.0742188 22.6797 0.0742188C27.3203 0.0742188 31.3164 1.19922 34.668 3.44922C38.043 5.67578 40.6328 8.74609 42.4375 12.6602C44.2422 16.5508 45.1445 21.0039 45.1445 26.0195V26.793C45.1445 31.832 44.2422 36.3086 42.4375 40.2227C40.6328 44.1133 38.0547 47.1719 34.7031 49.3984C31.3516 51.625 27.3555 52.7383 22.7148 52.7383ZM22.7148 45.707C25.8086 45.707 28.3516 44.9219 30.3438 43.3516C32.3594 41.7578 33.8477 39.543 34.8086 36.707C35.793 33.8711 36.2852 30.5664 36.2852 26.793V25.9492C36.2852 22.2461 35.793 18.9883 34.8086 16.1758C33.8242 13.3398 32.3242 11.125 30.3086 9.53125C28.293 7.9375 25.75 7.14062 22.6797 7.14062C19.7266 7.14062 17.2539 7.9375 15.2617 9.53125C13.2695 11.1016 11.7695 13.3047 10.7617 16.1406C9.75391 18.9531 9.25 22.2227 9.25 25.9492V26.793C9.25 30.543 9.75391 33.8477 10.7617 36.707C11.7695 39.543 13.2695 41.7578 15.2617 43.3516C17.2773 44.9219 19.7617 45.707 22.7148 45.707ZM70.3333 52.7383C66.8645 52.7383 63.6184 52.3047 60.595 51.4375C57.595 50.5703 54.677 49.1289 51.8411 47.1133V35.3359H58.6966L59.8216 42.9297C61.0403 43.8438 62.5638 44.5703 64.3919 45.1094C66.2434 45.6484 68.2239 45.918 70.3333 45.918C73.427 45.918 75.8059 45.2617 77.47 43.9492C79.1341 42.6367 79.9661 40.8789 79.9661 38.6758C79.9661 36.6367 79.1927 34.9375 77.6458 33.5781C76.1223 32.1953 73.4153 30.9766 69.5247 29.9219C63.7825 28.375 59.4583 26.3828 56.552 23.9453C53.6458 21.5078 52.1927 18.2734 52.1927 14.2422C52.1927 11.5 52.9309 9.07422 54.4075 6.96484C55.9075 4.85547 57.9817 3.19141 60.6302 1.97266C63.2786 0.753906 66.3372 0.132813 69.8059 0.109375C73.6028 0.0625 76.9544 0.554688 79.8606 1.58594C82.7903 2.61719 85.263 3.96484 87.2786 5.62891V16.6328H80.5638L79.2981 9.46094C78.3372 8.78125 77.0833 8.20703 75.5364 7.73828C74.013 7.24609 72.2083 7 70.1223 7C67.4505 7 65.2708 7.64453 63.5833 8.93359C61.8958 10.1992 61.052 11.9453 61.052 14.1719C61.052 16.0938 61.8372 17.6758 63.4075 18.918C65.0013 20.1602 67.8489 21.3672 71.9505 22.5391C77.4817 24.0156 81.677 26.0547 84.5364 28.6562C87.4192 31.2344 88.8606 34.5508 88.8606 38.6055C88.8606 41.4648 88.0872 43.9492 86.5403 46.0586C85.0169 48.168 82.8606 49.8086 80.0716 50.9805C77.3059 52.1523 74.0598 52.7383 70.3333 52.7383Z" fill="#8584CD"/>
</svg>
